STARTFONT 2.1
FONT -FontForge-Everyday_Ample_Bold_Original-Book-R-Normal--9-90-75-75-P-46-ISO10646-1
SIZE 9 75 75
FONTBOUNDINGBOX 10 12 0 0
COMMENT "Generated by fontforge, http://fontforge.sourceforge.net"
STARTPROPERTIES 38
FOUNDRY "FontForge"
FAMILY_NAME "Everyday_Ample_Bold_Original"
WEIGHT_NAME "Book"
SLANT "R"
SETWIDTH_NAME "Normal"
ADD_STYLE_NAME ""
PIXEL_SIZE 9
POINT_SIZE 90
RESOLUTION_X 75
RESOLUTION_Y 75
SPACING "P"
AVERAGE_WIDTH 46
CHARSET_REGISTRY "ISO10646"
CHARSET_ENCODING "1"
FONTNAME_REGISTRY ""
CHARSET_COLLECTIONS "ISO10646-1"
FONT_NAME "Everyday_Ample_Bold_Original"
FACE_NAME "Everyday_Ample_Bold_Original Regular"
FONT_VERSION "1.0"
FONT_ASCENT 7
FONT_DESCENT 2
UNDERLINE_POSITION 1
UNDERLINE_THICKNESS 1
X_HEIGHT 9
CAP_HEIGHT 11
RAW_ASCENT 799
RAW_DESCENT 200
NORM_SPACE 7
RELATIVE_WEIGHT 40
RELATIVE_SETWIDTH 50
SUPERSCRIPT_X 0
SUPERSCRIPT_Y 4
SUPERSCRIPT_SIZE 4
SUBSCRIPT_X 0
SUBSCRIPT_Y -1
SUBSCRIPT_SIZE 4
AVG_LOWERCASE_WIDTH 36
AVG_UPPERCASE_WIDTH 43
ENDPROPERTIES
CHARS 165
STARTCHAR uni000D
ENCODING 13
SWIDTH 111 0
DWIDTH 1 0
BBX 1 1 0 0
BITMAP
00
ENDCHAR
STARTCHAR space
ENCODING 32
SWIDTH 777 0
DWIDTH 7 0
BBX 1 1 0 0
BITMAP
00
ENDCHAR
STARTCHAR exclam
ENCODING 33
SWIDTH 333 0
DWIDTH 3 0
BBX 2 9 0 3
BITMAP
C0
C0
C0
C0
C0
C0
00
C0
C0
ENDCHAR
STARTCHAR quotedbl
ENCODING 34
SWIDTH 444 0
DWIDTH 4 0
BBX 3 2 0 10
BITMAP
A0
A0
ENDCHAR
STARTCHAR numbersign
ENCODING 35
SWIDTH 888 0
DWIDTH 8 0
BBX 7 7 0 3
BITMAP
64
FE
64
64
64
FE
64
ENDCHAR
STARTCHAR dollar
ENCODING 36
SWIDTH 777 0
DWIDTH 7 0
BBX 6 9 0 3
BITMAP
10
7C
D4
D0
78
2C
AC
F8
20
ENDCHAR
STARTCHAR percent
ENCODING 37
SWIDTH 1111 0
DWIDTH 10 0
BBX 9 9 0 3
BITMAP
E180
A380
E700
0E00
1C00
3800
7380
E280
C380
ENDCHAR
STARTCHAR ampersand
ENCODING 38
SWIDTH 888 0
DWIDTH 8 0
BBX 7 9 0 3
BITMAP
70
C8
C8
70
D2
CA
C6
C2
7C
ENDCHAR
STARTCHAR quotesingle
ENCODING 39
SWIDTH 222 0
DWIDTH 2 0
BBX 1 2 0 10
BITMAP
80
80
ENDCHAR
STARTCHAR parenleft
ENCODING 40
SWIDTH 666 0
DWIDTH 6 0
BBX 5 11 0 1
BITMAP
38
60
C0
C0
C0
C0
C0
C0
C0
60
38
ENDCHAR
STARTCHAR parenright
ENCODING 41
SWIDTH 666 0
DWIDTH 6 0
BBX 5 11 0 1
BITMAP
E0
30
18
18
18
18
18
18
18
30
E0
ENDCHAR
STARTCHAR asterisk
ENCODING 42
SWIDTH 1000 0
DWIDTH 9 0
BBX 8 7 0 4
BITMAP
18
99
5A
3C
5A
99
18
ENDCHAR
STARTCHAR plus
ENCODING 43
SWIDTH 1000 0
DWIDTH 9 0
BBX 8 7 0 4
BITMAP
18
18
18
FF
18
18
18
ENDCHAR
STARTCHAR comma
ENCODING 44
SWIDTH 444 0
DWIDTH 4 0
BBX 3 3 0 2
BITMAP
60
60
C0
ENDCHAR
STARTCHAR hyphen
ENCODING 45
SWIDTH 777 0
DWIDTH 7 0
BBX 6 1 0 7
BITMAP
FC
ENDCHAR
STARTCHAR period
ENCODING 46
SWIDTH 333 0
DWIDTH 3 0
BBX 2 2 0 3
BITMAP
C0
C0
ENDCHAR
STARTCHAR slash
ENCODING 47
SWIDTH 555 0
DWIDTH 5 0
BBX 4 9 0 3
BITMAP
30
30
30
60
60
60
C0
C0
C0
ENDCHAR
STARTCHAR zero
ENCODING 48
SWIDTH 888 0
DWIDTH 8 0
BBX 7 9 0 3
BITMAP
38
64
C2
CA
DA
D2
C2
64
38
ENDCHAR
STARTCHAR one
ENCODING 49
SWIDTH 777 0
DWIDTH 7 0
BBX 6 9 0 3
BITMAP
30
F0
30
30
30
30
30
30
FC
ENDCHAR
STARTCHAR two
ENCODING 50
SWIDTH 888 0
DWIDTH 8 0
BBX 7 9 0 3
BITMAP
7C
C6
06
06
7C
C0
C0
C2
FE
ENDCHAR
STARTCHAR three
ENCODING 51
SWIDTH 888 0
DWIDTH 8 0
BBX 7 9 0 3
BITMAP
7C
C6
06
06
7C
06
06
C6
7C
ENDCHAR
STARTCHAR four
ENCODING 52
SWIDTH 888 0
DWIDTH 8 0
BBX 7 9 0 3
BITMAP
C6
C6
C6
C6
FE
06
06
06
06
ENDCHAR
STARTCHAR five
ENCODING 53
SWIDTH 888 0
DWIDTH 8 0
BBX 7 9 0 3
BITMAP
FE
C2
C0
C0
7C
06
06
C6
7C
ENDCHAR
STARTCHAR six
ENCODING 54
SWIDTH 888 0
DWIDTH 8 0
BBX 7 9 0 3
BITMAP
7C
C6
C0
FC
C2
C2
C2
C2
7C
ENDCHAR
STARTCHAR seven
ENCODING 55
SWIDTH 888 0
DWIDTH 8 0
BBX 7 9 0 3
BITMAP
FE
86
06
0C
0C
18
18
30
30
ENDCHAR
STARTCHAR eight
ENCODING 56
SWIDTH 888 0
DWIDTH 8 0
BBX 7 9 0 3
BITMAP
7C
C2
C2
C2
7C
C2
C2
C2
7C
ENDCHAR
STARTCHAR nine
ENCODING 57
SWIDTH 888 0
DWIDTH 8 0
BBX 7 9 0 3
BITMAP
7C
86
86
86
86
7E
06
C6
7C
ENDCHAR
STARTCHAR colon
ENCODING 58
SWIDTH 333 0
DWIDTH 3 0
BBX 2 7 0 3
BITMAP
C0
C0
00
00
00
C0
C0
ENDCHAR
STARTCHAR semicolon
ENCODING 59
SWIDTH 444 0
DWIDTH 4 0
BBX 3 8 0 2
BITMAP
60
60
00
00
00
60
60
C0
ENDCHAR
STARTCHAR less
ENCODING 60
SWIDTH 888 0
DWIDTH 8 0
BBX 7 7 0 4
BITMAP
06
1E
78
E0
78
1E
06
ENDCHAR
STARTCHAR equal
ENCODING 61
SWIDTH 777 0
DWIDTH 7 0
BBX 6 5 0 5
BITMAP
FC
00
00
00
FC
ENDCHAR
STARTCHAR greater
ENCODING 62
SWIDTH 888 0
DWIDTH 8 0
BBX 7 7 0 4
BITMAP
C0
F0
3C
0E
3C
F0
C0
ENDCHAR
STARTCHAR question
ENCODING 63
SWIDTH 777 0
DWIDTH 7 0
BBX 6 9 0 3
BITMAP
78
CC
0C
1C
38
30
00
30
30
ENDCHAR
STARTCHAR at
ENCODING 64
SWIDTH 1111 0
DWIDTH 10 0
BBX 9 9 0 3
BITMAP
3E00
6100
CE80
D680
D680
D680
CF00
6000
3E00
ENDCHAR
STARTCHAR A
ENCODING 65
SWIDTH 1000 0
DWIDTH 9 0
BBX 8 9 0 3
BITMAP
18
34
34
62
62
7E
C1
C1
C1
ENDCHAR
STARTCHAR B
ENCODING 66
SWIDTH 888 0
DWIDTH 8 0
BBX 7 9 0 3
BITMAP
FC
C2
C2
C2
FC
C2
C2
C2
FC
ENDCHAR
STARTCHAR C
ENCODING 67
SWIDTH 1000 0
DWIDTH 9 0
BBX 8 9 0 3
BITMAP
3E
63
C0
C0
C0
C0
C0
63
3E
ENDCHAR
STARTCHAR D
ENCODING 68
SWIDTH 888 0
DWIDTH 8 0
BBX 7 9 0 3
BITMAP
F8
C4
C2
C2
C2
C2
C2
C4
F8
ENDCHAR
STARTCHAR E
ENCODING 69
SWIDTH 888 0
DWIDTH 8 0
BBX 7 9 0 3
BITMAP
FE
C0
C0
C0
F8
C0
C0
C0
FE
ENDCHAR
STARTCHAR F
ENCODING 70
SWIDTH 888 0
DWIDTH 8 0
BBX 7 9 0 3
BITMAP
FE
C0
C0
C0
F8
C0
C0
C0
C0
ENDCHAR
STARTCHAR G
ENCODING 71
SWIDTH 1000 0
DWIDTH 9 0
BBX 8 9 0 3
BITMAP
3E
63
C0
C0
CF
C1
C1
61
3E
ENDCHAR
STARTCHAR H
ENCODING 72
SWIDTH 888 0
DWIDTH 8 0
BBX 7 9 0 3
BITMAP
C2
C2
C2
C2
FE
C2
C2
C2
C2
ENDCHAR
STARTCHAR I
ENCODING 73
SWIDTH 555 0
DWIDTH 5 0
BBX 4 9 0 3
BITMAP
F0
60
60
60
60
60
60
60
F0
ENDCHAR
STARTCHAR J
ENCODING 74
SWIDTH 888 0
DWIDTH 8 0
BBX 7 9 0 3
BITMAP
3E
06
06
06
06
06
06
CC
78
ENDCHAR
STARTCHAR K
ENCODING 75
SWIDTH 888 0
DWIDTH 8 0
BBX 7 9 0 3
BITMAP
C2
C2
C4
C4
F8
C4
C4
C2
C2
ENDCHAR
STARTCHAR L
ENCODING 76
SWIDTH 888 0
DWIDTH 8 0
BBX 7 9 0 3
BITMAP
C0
C0
C0
C0
C0
C0
C0
C0
7E
ENDCHAR
STARTCHAR M
ENCODING 77
SWIDTH 1222 0
DWIDTH 11 0
BBX 10 9 0 3
BITMAP
3100
6A80
6A80
C440
C440
C440
C440
C440
C040
ENDCHAR
STARTCHAR N
ENCODING 78
SWIDTH 888 0
DWIDTH 8 0
BBX 7 9 0 3
BITMAP
F8
C4
C2
C2
C2
C2
C2
C2
C2
ENDCHAR
STARTCHAR O
ENCODING 79
SWIDTH 1000 0
DWIDTH 9 0
BBX 8 9 0 3
BITMAP
3C
62
C1
C1
C1
C1
C1
62
3C
ENDCHAR
STARTCHAR P
ENCODING 80
SWIDTH 888 0
DWIDTH 8 0
BBX 7 9 0 3
BITMAP
F8
C4
C2
C2
C4
F8
C0
C0
C0
ENDCHAR
STARTCHAR Q
ENCODING 81
SWIDTH 1000 0
DWIDTH 9 0
BBX 8 9 0 3
BITMAP
3C
62
C1
C1
C1
C1
C5
62
3D
ENDCHAR
STARTCHAR R
ENCODING 82
SWIDTH 888 0
DWIDTH 8 0
BBX 7 9 0 3
BITMAP
F8
C4
C2
C2
C2
FC
C4
C2
C2
ENDCHAR
STARTCHAR S
ENCODING 83
SWIDTH 888 0
DWIDTH 8 0
BBX 7 9 0 3
BITMAP
7C
C6
C0
C0
7C
06
06
C6
7C
ENDCHAR
STARTCHAR T
ENCODING 84
SWIDTH 1000 0
DWIDTH 9 0
BBX 8 9 0 3
BITMAP
FF
18
18
18
18
18
18
18
18
ENDCHAR
STARTCHAR U
ENCODING 85
SWIDTH 888 0
DWIDTH 8 0
BBX 7 9 0 3
BITMAP
86
86
86
86
86
86
86
46
3E
ENDCHAR
STARTCHAR V
ENCODING 86
SWIDTH 1000 0
DWIDTH 9 0
BBX 8 9 0 3
BITMAP
C1
C1
C1
62
62
34
34
18
18
ENDCHAR
STARTCHAR W
ENCODING 87
SWIDTH 1222 0
DWIDTH 11 0
BBX 10 9 0 3
BITMAP
C040
C440
C440
C440
C440
6A80
6A80
3100
3100
ENDCHAR
STARTCHAR X
ENCODING 88
SWIDTH 888 0
DWIDTH 8 0
BBX 7 9 0 3
BITMAP
C2
C2
64
64
38
64
64
C2
C2
ENDCHAR
STARTCHAR Y
ENCODING 89
SWIDTH 1000 0
DWIDTH 9 0
BBX 8 9 0 3
BITMAP
C1
C1
62
62
34
18
18
18
18
ENDCHAR
STARTCHAR Z
ENCODING 90
SWIDTH 888 0
DWIDTH 8 0
BBX 7 9 0 3
BITMAP
FE
86
0E
1C
38
70
E0
C2
FE
ENDCHAR
STARTCHAR bracketleft
ENCODING 91
SWIDTH 555 0
DWIDTH 5 0
BBX 4 11 0 1
BITMAP
F0
C0
C0
C0
C0
C0
C0
C0
C0
C0
F0
ENDCHAR
STARTCHAR backslash
ENCODING 92
SWIDTH 555 0
DWIDTH 5 0
BBX 4 9 0 3
BITMAP
C0
C0
C0
60
60
60
30
30
30
ENDCHAR
STARTCHAR bracketright
ENCODING 93
SWIDTH 555 0
DWIDTH 5 0
BBX 4 11 0 1
BITMAP
F0
30
30
30
30
30
30
30
30
30
F0
ENDCHAR
STARTCHAR asciicircum
ENCODING 94
SWIDTH 777 0
DWIDTH 7 0
BBX 6 3 0 9
BITMAP
30
78
DC
ENDCHAR
STARTCHAR underscore
ENCODING 95
SWIDTH 1222 0
DWIDTH 11 0
BBX 10 1 0 2
BITMAP
FFC0
ENDCHAR
STARTCHAR grave
ENCODING 96
SWIDTH 444 0
DWIDTH 4 0
BBX 3 3 0 9
BITMAP
C0
C0
60
ENDCHAR
STARTCHAR a
ENCODING 97
SWIDTH 777 0
DWIDTH 7 0
BBX 6 7 0 3
BITMAP
78
0C
7C
8C
8C
8C
7C
ENDCHAR
STARTCHAR b
ENCODING 98
SWIDTH 777 0
DWIDTH 7 0
BBX 6 9 0 3
BITMAP
C0
C0
F8
C4
C4
C4
C4
C4
F8
ENDCHAR
STARTCHAR c
ENCODING 99
SWIDTH 777 0
DWIDTH 7 0
BBX 6 7 0 3
BITMAP
78
C0
C0
C0
C0
C4
78
ENDCHAR
STARTCHAR d
ENCODING 100
SWIDTH 777 0
DWIDTH 7 0
BBX 6 9 0 3
BITMAP
0C
0C
7C
8C
8C
8C
8C
8C
7C
ENDCHAR
STARTCHAR e
ENCODING 101
SWIDTH 777 0
DWIDTH 7 0
BBX 6 7 0 3
BITMAP
78
C4
C4
FC
C0
C4
78
ENDCHAR
STARTCHAR f
ENCODING 102
SWIDTH 666 0
DWIDTH 6 0
BBX 5 9 0 3
BITMAP
70
D8
C0
C0
F0
C0
C0
C0
C0
ENDCHAR
STARTCHAR g
ENCODING 103
SWIDTH 777 0
DWIDTH 7 0
BBX 6 9 0 1
BITMAP
78
8C
8C
8C
8C
8C
7C
0C
78
ENDCHAR
STARTCHAR h
ENCODING 104
SWIDTH 777 0
DWIDTH 7 0
BBX 6 9 0 3
BITMAP
C0
C0
F8
C4
C4
C4
C4
C4
C4
ENDCHAR
STARTCHAR i
ENCODING 105
SWIDTH 333 0
DWIDTH 3 0
BBX 2 9 0 3
BITMAP
C0
00
C0
C0
C0
C0
C0
C0
C0
ENDCHAR
STARTCHAR j
ENCODING 106
SWIDTH 666 0
DWIDTH 6 0
BBX 5 11 0 1
BITMAP
18
00
18
18
18
18
18
18
18
D8
70
ENDCHAR
STARTCHAR k
ENCODING 107
SWIDTH 777 0
DWIDTH 7 0
BBX 6 9 0 3
BITMAP
C0
C0
C4
C8
F0
C8
C4
C4
C4
ENDCHAR
STARTCHAR l
ENCODING 108
SWIDTH 555 0
DWIDTH 5 0
BBX 4 9 0 3
BITMAP
C0
C0
C0
C0
C0
C0
C0
C0
70
ENDCHAR
STARTCHAR m
ENCODING 109
SWIDTH 1222 0
DWIDTH 11 0
BBX 10 7 0 3
BITMAP
7B80
C440
C440
C440
C440
C440
C040
ENDCHAR
STARTCHAR n
ENCODING 110
SWIDTH 777 0
DWIDTH 7 0
BBX 6 7 0 3
BITMAP
F8
C4
C4
C4
C4
C4
C4
ENDCHAR
STARTCHAR o
ENCODING 111
SWIDTH 777 0
DWIDTH 7 0
BBX 6 7 0 3
BITMAP
78
C4
C4
C4
C4
C4
78
ENDCHAR
STARTCHAR p
ENCODING 112
SWIDTH 777 0
DWIDTH 7 0
BBX 6 9 0 1
BITMAP
F8
C4
C4
C4
C4
C4
F8
C0
C0
ENDCHAR
STARTCHAR q
ENCODING 113
SWIDTH 777 0
DWIDTH 7 0
BBX 6 9 0 1
BITMAP
7C
8C
8C
8C
8C
8C
7C
0C
0C
ENDCHAR
STARTCHAR r
ENCODING 114
SWIDTH 777 0
DWIDTH 7 0
BBX 6 7 0 3
BITMAP
78
CC
C0
C0
C0
C0
C0
ENDCHAR
STARTCHAR s
ENCODING 115
SWIDTH 777 0
DWIDTH 7 0
BBX 6 7 0 3
BITMAP
78
CC
C0
78
0C
CC
78
ENDCHAR
STARTCHAR t
ENCODING 116
SWIDTH 666 0
DWIDTH 6 0
BBX 5 9 0 3
BITMAP
C0
C0
F0
C0
C0
C0
C0
D8
70
ENDCHAR
STARTCHAR u
ENCODING 117
SWIDTH 777 0
DWIDTH 7 0
BBX 6 7 0 3
BITMAP
8C
8C
8C
8C
8C
8C
7C
ENDCHAR
STARTCHAR v
ENCODING 118
SWIDTH 777 0
DWIDTH 7 0
BBX 6 7 0 3
BITMAP
C4
C4
C4
68
68
30
30
ENDCHAR
STARTCHAR w
ENCODING 119
SWIDTH 1222 0
DWIDTH 11 0
BBX 10 7 0 3
BITMAP
C040
C440
C440
C440
C440
C440
7B80
ENDCHAR
STARTCHAR x
ENCODING 120
SWIDTH 777 0
DWIDTH 7 0
BBX 6 7 0 3
BITMAP
C4
C4
68
30
68
C4
C4
ENDCHAR
STARTCHAR y
ENCODING 121
SWIDTH 777 0
DWIDTH 7 0
BBX 6 9 0 1
BITMAP
8C
8C
8C
8C
8C
8C
7C
0C
78
ENDCHAR
STARTCHAR z
ENCODING 122
SWIDTH 888 0
DWIDTH 8 0
BBX 7 7 0 3
BITMAP
FE
8E
1C
38
70
E2
FE
ENDCHAR
STARTCHAR braceleft
ENCODING 123
SWIDTH 666 0
DWIDTH 6 0
BBX 5 11 0 1
BITMAP
38
60
60
60
60
C0
60
60
60
60
38
ENDCHAR
STARTCHAR bar
ENCODING 124
SWIDTH 333 0
DWIDTH 3 0
BBX 2 11 0 1
BITMAP
C0
C0
C0
C0
C0
C0
C0
C0
C0
C0
C0
ENDCHAR
STARTCHAR braceright
ENCODING 125
SWIDTH 666 0
DWIDTH 6 0
BBX 5 11 0 1
BITMAP
E0
30
30
30
30
18
30
30
30
30
E0
ENDCHAR
STARTCHAR asciitilde
ENCODING 126
SWIDTH 888 0
DWIDTH 8 0
BBX 7 3 0 9
BITMAP
66
D6
CC
ENDCHAR
STARTCHAR exclamdown
ENCODING 161
SWIDTH 111 0
DWIDTH 1 0
BBX 1 1 0 0
BITMAP
00
ENDCHAR
STARTCHAR questiondown
ENCODING 191
SWIDTH 111 0
DWIDTH 1 0
BBX 1 1 0 0
BITMAP
00
ENDCHAR
STARTCHAR Agrave
ENCODING 192
SWIDTH 111 0
DWIDTH 1 0
BBX 1 1 0 0
BITMAP
00
ENDCHAR
STARTCHAR Aacute
ENCODING 193
SWIDTH 111 0
DWIDTH 1 0
BBX 1 1 0 0
BITMAP
00
ENDCHAR
STARTCHAR Acircumflex
ENCODING 194
SWIDTH 111 0
DWIDTH 1 0
BBX 1 1 0 0
BITMAP
00
ENDCHAR
STARTCHAR Atilde
ENCODING 195
SWIDTH 111 0
DWIDTH 1 0
BBX 1 1 0 0
BITMAP
00
ENDCHAR
STARTCHAR Adieresis
ENCODING 196
SWIDTH 111 0
DWIDTH 1 0
BBX 1 1 0 0
BITMAP
00
ENDCHAR
STARTCHAR Aring
ENCODING 197
SWIDTH 111 0
DWIDTH 1 0
BBX 1 1 0 0
BITMAP
00
ENDCHAR
STARTCHAR AE
ENCODING 198
SWIDTH 111 0
DWIDTH 1 0
BBX 1 1 0 0
BITMAP
00
ENDCHAR
STARTCHAR Ccedilla
ENCODING 199
SWIDTH 111 0
DWIDTH 1 0
BBX 1 1 0 0
BITMAP
00
ENDCHAR
STARTCHAR Egrave
ENCODING 200
SWIDTH 111 0
DWIDTH 1 0
BBX 1 1 0 0
BITMAP
00
ENDCHAR
STARTCHAR Eacute
ENCODING 201
SWIDTH 111 0
DWIDTH 1 0
BBX 1 1 0 0
BITMAP
00
ENDCHAR
STARTCHAR Ecircumflex
ENCODING 202
SWIDTH 111 0
DWIDTH 1 0
BBX 1 1 0 0
BITMAP
00
ENDCHAR
STARTCHAR Edieresis
ENCODING 203
SWIDTH 111 0
DWIDTH 1 0
BBX 1 1 0 0
BITMAP
00
ENDCHAR
STARTCHAR Igrave
ENCODING 204
SWIDTH 111 0
DWIDTH 1 0
BBX 1 1 0 0
BITMAP
00
ENDCHAR
STARTCHAR Iacute
ENCODING 205
SWIDTH 111 0
DWIDTH 1 0
BBX 1 1 0 0
BITMAP
00
ENDCHAR
STARTCHAR Icircumflex
ENCODING 206
SWIDTH 111 0
DWIDTH 1 0
BBX 1 1 0 0
BITMAP
00
ENDCHAR
STARTCHAR Idieresis
ENCODING 207
SWIDTH 111 0
DWIDTH 1 0
BBX 1 1 0 0
BITMAP
00
ENDCHAR
STARTCHAR Eth
ENCODING 208
SWIDTH 111 0
DWIDTH 1 0
BBX 1 1 0 0
BITMAP
00
ENDCHAR
STARTCHAR Ntilde
ENCODING 209
SWIDTH 111 0
DWIDTH 1 0
BBX 1 1 0 0
BITMAP
00
ENDCHAR
STARTCHAR Ograve
ENCODING 210
SWIDTH 111 0
DWIDTH 1 0
BBX 1 1 0 0
BITMAP
00
ENDCHAR
STARTCHAR Oacute
ENCODING 211
SWIDTH 111 0
DWIDTH 1 0
BBX 1 1 0 0
BITMAP
00
ENDCHAR
STARTCHAR Ocircumflex
ENCODING 212
SWIDTH 111 0
DWIDTH 1 0
BBX 1 1 0 0
BITMAP
00
ENDCHAR
STARTCHAR Otilde
ENCODING 213
SWIDTH 111 0
DWIDTH 1 0
BBX 1 1 0 0
BITMAP
00
ENDCHAR
STARTCHAR Odieresis
ENCODING 214
SWIDTH 111 0
DWIDTH 1 0
BBX 1 1 0 0
BITMAP
00
ENDCHAR
STARTCHAR Ugrave
ENCODING 217
SWIDTH 111 0
DWIDTH 1 0
BBX 1 1 0 0
BITMAP
00
ENDCHAR
STARTCHAR Uacute
ENCODING 218
SWIDTH 111 0
DWIDTH 1 0
BBX 1 1 0 0
BITMAP
00
ENDCHAR
STARTCHAR Ucircumflex
ENCODING 219
SWIDTH 111 0
DWIDTH 1 0
BBX 1 1 0 0
BITMAP
00
ENDCHAR
STARTCHAR Udieresis
ENCODING 220
SWIDTH 111 0
DWIDTH 1 0
BBX 1 1 0 0
BITMAP
00
ENDCHAR
STARTCHAR Yacute
ENCODING 221
SWIDTH 111 0
DWIDTH 1 0
BBX 1 1 0 0
BITMAP
00
ENDCHAR
STARTCHAR Thorn
ENCODING 222
SWIDTH 111 0
DWIDTH 1 0
BBX 1 1 0 0
BITMAP
00
ENDCHAR
STARTCHAR germandbls
ENCODING 223
SWIDTH 111 0
DWIDTH 1 0
BBX 1 1 0 0
BITMAP
00
ENDCHAR
STARTCHAR agrave
ENCODING 224
SWIDTH 111 0
DWIDTH 1 0
BBX 1 1 0 0
BITMAP
00
ENDCHAR
STARTCHAR aacute
ENCODING 225
SWIDTH 111 0
DWIDTH 1 0
BBX 1 1 0 0
BITMAP
00
ENDCHAR
STARTCHAR acircumflex
ENCODING 226
SWIDTH 111 0
DWIDTH 1 0
BBX 1 1 0 0
BITMAP
00
ENDCHAR
STARTCHAR atilde
ENCODING 227
SWIDTH 111 0
DWIDTH 1 0
BBX 1 1 0 0
BITMAP
00
ENDCHAR
STARTCHAR adieresis
ENCODING 228
SWIDTH 111 0
DWIDTH 1 0
BBX 1 1 0 0
BITMAP
00
ENDCHAR
STARTCHAR aring
ENCODING 229
SWIDTH 111 0
DWIDTH 1 0
BBX 1 1 0 0
BITMAP
00
ENDCHAR
STARTCHAR ae
ENCODING 230
SWIDTH 111 0
DWIDTH 1 0
BBX 1 1 0 0
BITMAP
00
ENDCHAR
STARTCHAR ccedilla
ENCODING 231
SWIDTH 111 0
DWIDTH 1 0
BBX 1 1 0 0
BITMAP
00
ENDCHAR
STARTCHAR egrave
ENCODING 232
SWIDTH 111 0
DWIDTH 1 0
BBX 1 1 0 0
BITMAP
00
ENDCHAR
STARTCHAR eacute
ENCODING 233
SWIDTH 111 0
DWIDTH 1 0
BBX 1 1 0 0
BITMAP
00
ENDCHAR
STARTCHAR ecircumflex
ENCODING 234
SWIDTH 111 0
DWIDTH 1 0
BBX 1 1 0 0
BITMAP
00
ENDCHAR
STARTCHAR edieresis
ENCODING 235
SWIDTH 111 0
DWIDTH 1 0
BBX 1 1 0 0
BITMAP
00
ENDCHAR
STARTCHAR igrave
ENCODING 236
SWIDTH 111 0
DWIDTH 1 0
BBX 1 1 0 0
BITMAP
00
ENDCHAR
STARTCHAR iacute
ENCODING 237
SWIDTH 111 0
DWIDTH 1 0
BBX 1 1 0 0
BITMAP
00
ENDCHAR
STARTCHAR icircumflex
ENCODING 238
SWIDTH 111 0
DWIDTH 1 0
BBX 1 1 0 0
BITMAP
00
ENDCHAR
STARTCHAR idieresis
ENCODING 239
SWIDTH 111 0
DWIDTH 1 0
BBX 1 1 0 0
BITMAP
00
ENDCHAR
STARTCHAR eth
ENCODING 240
SWIDTH 111 0
DWIDTH 1 0
BBX 1 1 0 0
BITMAP
00
ENDCHAR
STARTCHAR ntilde
ENCODING 241
SWIDTH 111 0
DWIDTH 1 0
BBX 1 1 0 0
BITMAP
00
ENDCHAR
STARTCHAR ograve
ENCODING 242
SWIDTH 111 0
DWIDTH 1 0
BBX 1 1 0 0
BITMAP
00
ENDCHAR
STARTCHAR oacute
ENCODING 243
SWIDTH 111 0
DWIDTH 1 0
BBX 1 1 0 0
BITMAP
00
ENDCHAR
STARTCHAR ocircumflex
ENCODING 244
SWIDTH 111 0
DWIDTH 1 0
BBX 1 1 0 0
BITMAP
00
ENDCHAR
STARTCHAR otilde
ENCODING 245
SWIDTH 111 0
DWIDTH 1 0
BBX 1 1 0 0
BITMAP
00
ENDCHAR
STARTCHAR odieresis
ENCODING 246
SWIDTH 111 0
DWIDTH 1 0
BBX 1 1 0 0
BITMAP
00
ENDCHAR
STARTCHAR ugrave
ENCODING 249
SWIDTH 111 0
DWIDTH 1 0
BBX 1 1 0 0
BITMAP
00
ENDCHAR
STARTCHAR uacute
ENCODING 250
SWIDTH 111 0
DWIDTH 1 0
BBX 1 1 0 0
BITMAP
00
ENDCHAR
STARTCHAR ucircumflex
ENCODING 251
SWIDTH 111 0
DWIDTH 1 0
BBX 1 1 0 0
BITMAP
00
ENDCHAR
STARTCHAR udieresis
ENCODING 252
SWIDTH 111 0
DWIDTH 1 0
BBX 1 1 0 0
BITMAP
00
ENDCHAR
STARTCHAR yacute
ENCODING 253
SWIDTH 111 0
DWIDTH 1 0
BBX 1 1 0 0
BITMAP
00
ENDCHAR
STARTCHAR thorn
ENCODING 254
SWIDTH 111 0
DWIDTH 1 0
BBX 1 1 0 0
BITMAP
00
ENDCHAR
STARTCHAR ydieresis
ENCODING 255
SWIDTH 111 0
DWIDTH 1 0
BBX 1 1 0 0
BITMAP
00
ENDCHAR
STARTCHAR OE
ENCODING 338
SWIDTH 111 0
DWIDTH 1 0
BBX 1 1 0 0
BITMAP
00
ENDCHAR
STARTCHAR oe
ENCODING 339
SWIDTH 111 0
DWIDTH 1 0
BBX 1 1 0 0
BITMAP
00
ENDCHAR
STARTCHAR Ydieresis
ENCODING 376
SWIDTH 111 0
DWIDTH 1 0
BBX 1 1 0 0
BITMAP
00
ENDCHAR
STARTCHAR Ygrave
ENCODING 7922
SWIDTH 111 0
DWIDTH 1 0
BBX 1 1 0 0
BITMAP
00
ENDCHAR
STARTCHAR ygrave
ENCODING 7923
SWIDTH 111 0
DWIDTH 1 0
BBX 1 1 0 0
BITMAP
00
ENDCHAR
STARTCHAR uni220E
ENCODING 8718
SWIDTH 888 0
DWIDTH 8 0
BBX 7 9 0 3
BITMAP
FE
FE
FE
FE
FE
FE
FE
FE
FE
ENDCHAR
STARTCHAR .notdef
ENCODING -1
SWIDTH 111 0
DWIDTH 1 0
BBX 1 1 0 0
BITMAP
00
ENDCHAR
ENDFONT
